<svg width="40" height="40" viewBox="0 0 40 40" fill="none" xmlns="http://www.w3.org/2000/svg">
<path d="M20 40C31.0457 40 40 31.0457 40 20C40 8.95431 31.0457 0 20 0C8.95431 0 0 8.95431 0 20C0 31.0457 8.95431 40 20 40Z" fill="#2C3036"/>
<path fill-rule="evenodd" clip-rule="evenodd" d="M19.2452 28.7716H20.815C20.815 28.7716 21.2892 28.7196 21.5312 28.4586C21.7541 28.219 21.7469 27.7691 21.7469 27.7691C21.7469 27.7691 21.7163 25.6628 22.6939 25.3526C23.6575 25.0471 24.895 27.3883 26.2066 28.2885C27.1985 28.9699 27.9522 28.8205 27.9522 28.8205L31.4592 28.7716C31.4592 28.7716 33.2939 28.6586 32.424 27.2161C32.3527 27.0981 31.9174 26.1491 29.8164 24.1989C27.6174 22.1578 27.9119 22.488 30.5608 18.9574C32.1741 16.8072 32.819 15.4945 32.6176 14.9323C32.4254 14.3968 31.2389 14.5383 31.2389 14.5383L27.2901 14.5629C27.2901 14.5629 26.9974 14.523 26.7803 14.6528C26.5681 14.78 26.4316 15.0767 26.4316 15.0767C26.4316 15.0767 25.8066 16.7405 24.9731 18.1556C23.2147 21.1414 22.5117 21.299 22.2243 21.1136C21.5558 20.6815 21.7227 19.3777 21.7227 18.4515C21.7227 15.558 22.1616 14.3515 20.8681 14.0392C20.4389 13.9354 20.123 13.867 19.0253 13.8559C17.6163 13.8413 16.4238 13.8602 15.7485 14.1911C15.2993 14.411 14.9528 14.9013 15.1638 14.9294C15.4248 14.9644 16.0159 15.0888 16.3293 15.5155C16.7339 16.066 16.7197 17.3024 16.7197 17.3024C16.7197 17.3024 16.9521 20.7086 16.1767 21.1318C15.6444 21.422 14.9142 20.8295 13.3466 18.1206C12.5434 16.7331 11.937 15.1993 11.937 15.1993C11.937 15.1993 11.82 14.9127 11.6115 14.7594C11.3583 14.5736 11.0047 14.5144 11.0047 14.5144L7.2523 14.539C7.2523 14.539 6.689 14.5547 6.48222 14.7996C6.29825 15.0175 6.4676 15.4681 6.4676 15.4681C6.4676 15.4681 9.40532 22.3411 12.7316 25.8047C15.7817 28.9802 19.2452 28.7716 19.2452 28.7716Z" fill="white"/>
</svg>
